<svg width="500" height="500" viewBox="0 0 500 500" fill="none" xmlns="http://www.w3.org/2000/svg">
<rect width="500" height="500" fill="white"/>
<path d="M184.788 248.06C183.007 248.06 181.25 247.73 179.641 247.043C172.348 243.927 171.916 235.908 172.068 232.606C172.164 230.524 173.924 228.916 176.011 229.011C178.092 229.107 179.702 230.872 179.606 232.953C179.485 235.579 179.907 238.951 182.606 240.104C184.888 241.079 188.289 240.254 190.186 238.265C191.67 236.707 191.894 234.83 190.853 232.684C187.223 225.204 179.683 222.142 170.952 218.597C155.379 212.274 136 204.404 136 166.646V150.874C136 147.833 137.186 144.976 139.339 142.828C141.492 140.681 144.346 139.497 147.393 139.51C155.842 139.531 163.749 143.696 168.545 150.652L171.479 154.907C173.134 157.307 175.864 158.74 178.779 158.74H196.448C198.532 158.74 200.221 160.429 200.221 162.513C200.221 164.596 198.532 166.286 196.448 166.286H178.779C173.382 166.286 168.331 163.633 165.267 159.19L162.334 154.935C158.941 150.016 153.349 147.07 147.374 147.055C147.371 147.055 147.367 147.055 147.364 147.055C146.346 147.055 145.389 147.451 144.668 148.171C143.944 148.892 143.546 149.853 143.546 150.874V166.647C143.546 181.411 146.659 192.059 153.064 199.2C158.692 205.476 166.368 208.592 173.791 211.607C183.109 215.391 192.745 219.303 197.64 229.39C200.054 234.364 199.309 239.628 195.647 243.471C192.828 246.427 188.75 248.06 184.788 248.06Z" fill="#FFB125"/>
<path d="M301.007 248.06C297.046 248.06 292.968 246.428 290.149 243.471C286.487 239.628 285.742 234.364 288.156 229.39C293.051 219.304 302.687 215.391 312.006 211.606C319.429 208.592 327.104 205.475 332.733 199.2C339.137 192.059 342.25 181.411 342.25 166.647V150.874C342.25 149.853 341.852 148.893 341.129 148.171C340.405 147.449 339.431 147.048 338.423 147.055C332.448 147.07 326.855 150.016 323.463 154.936L320.53 159.19C317.466 163.633 312.415 166.286 307.018 166.286H289.348C287.265 166.286 285.576 164.597 285.576 162.513C285.576 160.429 287.265 158.74 289.348 158.74H307.018C309.933 158.74 312.663 157.307 314.318 154.906L317.251 150.652C322.048 143.696 329.955 139.531 338.404 139.51C338.414 139.51 338.424 139.51 338.434 139.51C341.464 139.51 344.312 140.688 346.458 142.828C348.611 144.975 349.796 147.833 349.796 150.874V166.646C349.796 204.404 330.417 212.274 314.845 218.597C306.114 222.142 298.574 225.204 294.944 232.684C293.903 234.83 294.127 236.707 295.611 238.265C297.508 240.254 300.909 241.079 303.191 240.104C305.89 238.951 306.312 235.579 306.191 232.953C306.095 230.872 307.704 229.107 309.786 229.01C311.872 228.919 313.632 230.524 313.729 232.606C313.881 235.908 313.448 243.927 306.156 247.043C304.546 247.731 302.788 248.06 301.007 248.06Z" fill="#FFB125"/>
<path d="M251.219 268.57H234.572V344.173H251.219V268.57Z" fill="#FED130"/>
<path d="M181.689 132.395V181.499C181.689 216.32 198.239 249.069 226.274 269.723L242.897 281.969L259.52 269.722C287.555 249.069 304.104 216.32 304.104 181.498V132.395H181.689Z" fill="#FED130"/>
<path d="M280.96 132.395V181.499C280.96 216.32 264.411 249.069 236.376 269.723L231.325 273.444L242.896 281.969L259.519 269.723C287.554 249.069 304.104 216.32 304.104 181.499V132.395H280.96Z" fill="#F7BC14"/>
<path d="M308.604 140.804H177.192C175.277 140.804 173.726 139.252 173.726 137.338V127.45C173.726 125.536 175.277 123.985 177.192 123.985H308.603C310.518 123.985 312.069 125.536 312.069 127.45V137.338C312.07 139.252 310.518 140.804 308.604 140.804Z" fill="#FFB125"/>
<path d="M308.604 123.985H289.054V140.804H308.604C310.518 140.804 312.07 139.252 312.07 137.338V127.45C312.07 125.536 310.518 123.985 308.604 123.985Z" fill="#FF901D"/>
<path d="M243.584 169.675L252.282 187.298C252.393 187.524 252.609 187.681 252.858 187.717L272.306 190.543C272.935 190.634 273.185 191.406 272.731 191.849L258.658 205.566C258.477 205.742 258.395 205.995 258.438 206.244L261.76 225.613C261.867 226.239 261.211 226.716 260.649 226.42L243.254 217.275C243.031 217.158 242.765 217.158 242.542 217.275L225.147 226.42C224.586 226.716 223.929 226.239 224.037 225.613L227.359 206.244C227.401 205.995 227.319 205.742 227.138 205.566L213.066 191.849C212.611 191.406 212.862 190.634 213.49 190.543L232.938 187.717C233.188 187.681 233.403 187.524 233.514 187.298L242.212 169.675C242.492 169.106 243.304 169.106 243.584 169.675Z" fill="white"/>
<path d="M252.342 287.835H233.454C229.913 287.835 227.043 284.964 227.043 281.423V278.653C227.043 275.112 229.913 272.241 233.454 272.241H252.342C255.883 272.241 258.754 275.112 258.754 278.653V281.423C258.754 284.964 255.883 287.835 252.342 287.835Z" fill="#FFB125"/>
<path d="M275.376 355.39H210.42V341.571C210.42 336.809 214.28 332.949 219.043 332.949H266.754C271.516 332.949 275.376 336.809 275.376 341.571V355.39H275.376Z" fill="#FFB125"/>
<path d="M266.755 332.951H252.442V355.391H275.377V341.573C275.377 336.811 271.517 332.951 266.755 332.951Z" fill="#FF901D"/>
<path d="M293.502 378.014H192.296C189.27 378.014 186.996 375.252 187.576 372.283L191.201 353.731C191.642 351.473 193.62 349.845 195.921 349.845H289.877C292.177 349.845 294.155 351.473 294.596 353.731L298.221 372.283C298.802 375.252 296.528 378.014 293.502 378.014Z" fill="#FF901D"/>
<path d="M298.221 372.283L294.596 353.731C294.155 351.473 292.177 349.845 289.877 349.845H270.565L276.069 378.014H293.501C296.527 378.014 298.801 375.252 298.221 372.283Z" fill="#FF6D3A"/>
<circle cx="250.5" cy="250.5" r="223.5" stroke="#FFB125" stroke-width="10"/>
</svg>
