<svg width="101" height="50" viewBox="0 0 101 50" fill="none" xmlns="http://www.w3.org/2000/svg">
<path fill-rule="evenodd" clip-rule="evenodd" d="M49.9662 18.1947C54.1518 18.1947 57.5419 14.1236 57.5419 9.09734C57.5419 4.07106 54.1518 0 49.9662 0C45.7806 0 42.3905 4.07106 42.3905 9.09734C42.3905 14.1236 45.7806 18.1947 49.9662 18.1947ZM49.9662 22.7433C44.9094 22.7433 34.8147 25.7909 34.8147 31.8407V36.3893H65.1176V31.8407C65.1176 25.7909 55.023 22.7433 49.9662 22.7433ZM73.9672 12.3843C73.9672 15.9742 71.5459 18.8819 68.5564 18.8819C65.5669 18.8819 63.1455 15.9742 63.1455 12.3843C63.1455 8.79434 65.5669 5.88665 68.5564 5.88665C71.5459 5.88665 73.9672 8.79434 73.9672 12.3843ZM60.6613 24.3751C63.075 22.8811 66.4359 22.1307 68.5564 22.1307C72.1681 22.1307 79.3781 24.3074 79.3781 28.6284V31.8772H68.0587C66.9552 27.9793 64.1243 25.0402 60.6613 24.3751ZM31.256 18.7377C28.4228 18.7377 26.128 15.982 26.128 12.5797C26.128 9.17743 28.4228 6.42175 31.256 6.42175C34.0892 6.42175 36.3839 9.17743 36.3839 12.5797C36.3839 15.982 34.0892 18.7377 31.256 18.7377ZM31.256 21.8166C33.2656 21.8166 36.4507 22.5277 38.7383 23.9436C35.4562 24.574 32.7733 27.3594 31.7275 31.0536H21V27.9746C21 23.8795 27.833 21.8166 31.256 21.8166Z" fill="#FFCA28"/>
<path fill-rule="evenodd" clip-rule="evenodd" d="M50.0257 45.8374C68.4025 29.9525 85.7776 36.8034 92.2064 42.2614C90.8483 41.2071 55.1435 44.1635 50.1389 45.9302C50.5937 46.3041 51.0492 46.6918 51.5053 47.0935C49.3993 45.3722 10.3668 42.0835 8.94568 43.1868C15.246 37.8379 32.0594 31.1512 50.0257 45.8374ZM51.5307 47.1159L51.5053 47.0935C51.5145 47.101 51.5229 47.1085 51.5307 47.1159Z" fill="#FFDB6C"/>
<path d="M7.71181 38.1593L0 48.9558H49.3556C66.1159 47.6191 99.8833 47.4752 100.87 48.9558C101.858 50.4365 96.9631 41.7581 94.3925 38.1593L49.3556 45.2542L7.71181 38.1593Z" fill="#FFB125"/>
</svg>
