<svg width="59" height="37" viewBox="0 0 59 37" fill="none" xmlns="http://www.w3.org/2000/svg">
<path fill-rule="evenodd" clip-rule="evenodd" d="M28.9662 18.1947C33.1518 18.1947 36.5419 14.1236 36.5419 9.09734C36.5419 4.07106 33.1518 0 28.9662 0C24.7806 0 21.3905 4.07106 21.3905 9.09734C21.3905 14.1236 24.7806 18.1947 28.9662 18.1947ZM28.9662 22.7433C23.9094 22.7433 13.8147 25.7909 13.8147 31.8407V36.3893H44.1176V31.8407C44.1176 25.7909 34.023 22.7433 28.9662 22.7433ZM52.9672 12.3843C52.9672 15.9742 50.5459 18.8819 47.5564 18.8819C44.5669 18.8819 42.1455 15.9742 42.1455 12.3843C42.1455 8.79434 44.5669 5.88665 47.5564 5.88665C50.5459 5.88665 52.9672 8.79434 52.9672 12.3843ZM39.6613 24.3751C42.075 22.8811 45.4359 22.1307 47.5564 22.1307C51.1681 22.1307 58.3781 24.3074 58.3781 28.6284V31.8772H47.0587C45.9552 27.9793 43.1243 25.0402 39.6613 24.3751ZM10.256 18.7377C7.42275 18.7377 5.12798 15.982 5.12798 12.5797C5.12798 9.17743 7.42275 6.42175 10.256 6.42175C13.0892 6.42175 15.3839 9.17743 15.3839 12.5797C15.3839 15.982 13.0892 18.7377 10.256 18.7377ZM10.256 21.8166C12.2656 21.8166 15.4507 22.5277 17.7383 23.9436C14.4562 24.574 11.7733 27.3594 10.7275 31.0536H0V27.9746C0 23.8795 6.83303 21.8166 10.256 21.8166Z" fill="#FFCA28"/>
</svg>
