<svg width="500" height="500" viewBox="0 0 500 500" fill="none" xmlns="http://www.w3.org/2000/svg">
<rect width="500" height="500" fill="white"/>
<path fill-rule="evenodd" clip-rule="evenodd" d="M248.206 225.261C264.139 225.261 277.044 209.764 277.044 190.631C277.044 171.497 264.139 156 248.206 156C232.272 156 219.367 171.497 219.367 190.631C219.367 209.764 232.272 225.261 248.206 225.261ZM248.206 242.577C228.956 242.577 190.529 254.178 190.529 277.207V294.523H305.882V277.207C305.882 254.178 267.455 242.577 248.206 242.577ZM339.57 203.143C339.57 216.809 330.352 227.877 318.972 227.877C307.592 227.877 298.375 216.809 298.375 203.143C298.375 189.477 307.592 178.409 318.972 178.409C330.352 178.409 339.57 189.477 339.57 203.143ZM288.918 248.788C298.107 243.101 310.9 240.245 318.972 240.245C332.721 240.245 360.167 248.531 360.167 264.979V277.346H317.078C312.877 262.508 302.101 251.32 288.918 248.788ZM176.981 227.328C166.196 227.328 157.461 216.838 157.461 203.887C157.461 190.936 166.196 180.446 176.981 180.446C187.767 180.446 196.502 190.936 196.502 203.887C196.502 216.838 187.767 227.328 176.981 227.328ZM176.981 239.049C184.632 239.049 196.756 241.756 205.464 247.146C192.971 249.545 182.758 260.149 178.776 274.211H137.94V262.49C137.94 246.902 163.951 239.049 176.981 239.049Z" fill="#FFCA28"/>
<path fill-rule="evenodd" clip-rule="evenodd" d="M248.432 330.489C318.387 270.02 384.528 296.099 409.001 316.876C403.831 312.863 267.915 324.117 248.863 330.842C250.594 332.265 252.328 333.741 254.065 335.27C246.048 328.718 97.4634 316.199 92.0535 320.399C116.037 300.037 180.04 274.583 248.432 330.489ZM254.161 335.355L254.065 335.27C254.1 335.299 254.132 335.327 254.161 335.355Z" fill="#FFDB6C"/>
<path d="M87.3564 301.26L58 342.359H245.881C309.682 337.271 438.224 336.723 441.982 342.359C445.739 347.996 427.108 314.96 417.322 301.26L245.881 328.268L87.3564 301.26Z" fill="#FFB125"/>
<circle cx="250.5" cy="250.5" r="223.5" stroke="#FFB125" stroke-width="10"/>
</svg>
