<svg width="500" height="500" viewBox="0 0 500 500" fill="none" xmlns="http://www.w3.org/2000/svg">
<rect width="500" height="500" fill="white"/>
<path fill-rule="evenodd" clip-rule="evenodd" d="M248.959 250.195C270.628 250.195 288.179 229.119 288.179 203.097C288.179 177.076 270.628 156 248.959 156C227.29 156 209.739 177.076 209.739 203.097C209.739 229.119 227.29 250.195 248.959 250.195ZM248.959 273.743C222.78 273.743 170.519 289.521 170.519 320.841V344.389H327.399V320.841C327.399 289.521 275.138 273.743 248.959 273.743ZM373.213 220.114C373.213 238.699 360.678 253.753 345.201 253.753C329.724 253.753 317.189 238.699 317.189 220.114C317.189 201.529 329.724 186.476 345.201 186.476C360.678 186.476 373.213 201.529 373.213 220.114ZM304.328 282.191C316.824 274.456 334.223 270.572 345.201 270.572C363.899 270.572 401.226 281.841 401.226 304.21V321.03H342.625C336.912 300.85 322.256 285.634 304.328 282.191ZM152.096 253.006C137.428 253.006 125.548 238.739 125.548 221.126C125.548 203.512 137.428 189.246 152.096 189.246C166.763 189.246 178.643 203.512 178.643 221.126C178.643 238.739 166.763 253.006 152.096 253.006ZM152.096 268.946C162.5 268.946 178.989 272.627 190.832 279.957C173.841 283.221 159.951 297.641 154.537 316.766H99V300.826C99 279.626 134.375 268.946 152.096 268.946Z" fill="#FFCA28"/>
<circle cx="250.5" cy="250.5" r="223.5" stroke="#FFB125" stroke-width="10"/>
</svg>
