<svg width="500" height="500" viewBox="0 0 500 500" fill="none" xmlns="http://www.w3.org/2000/svg">
<rect width="500" height="500" fill="white"/>
<circle cx="250.5" cy="250.5" r="138.5" fill="#FFCA28"/>
<path fill-rule="evenodd" clip-rule="evenodd" d="M185.394 250.5C197.161 250.5 206.701 240.96 206.701 229.192C206.701 217.424 197.161 207.884 185.394 207.884C173.626 207.884 164.086 217.424 164.086 229.192C164.086 240.96 173.626 250.5 185.394 250.5ZM313.24 250.5C325.008 250.5 334.547 240.96 334.547 229.192C334.547 217.424 325.008 207.884 313.24 207.884C301.472 207.884 291.932 217.424 291.932 229.192C291.932 240.96 301.472 250.5 313.24 250.5Z" fill="#6D4C41"/>
<path fill-rule="evenodd" clip-rule="evenodd" d="M240.223 299.276C223.786 303.029 209.983 316.213 202.37 327.719C200.147 331.078 195.61 332.007 192.236 329.794C188.862 327.581 187.929 323.064 190.152 319.705C198.905 306.477 215.472 289.982 236.952 285.078C259.389 279.955 284.794 287.956 309.322 319.229C311.808 322.4 311.242 326.977 308.058 329.453C304.874 331.928 300.276 331.365 297.79 328.195C275.762 300.108 255.703 295.742 240.223 299.276Z" fill="#6D4C41"/>
<circle cx="250.5" cy="250.5" r="223.5" stroke="#FFB125" stroke-width="10"/>
</svg>
