<svg width="62" height="62" viewBox="0 0 62 62" fill="none" xmlns="http://www.w3.org/2000/svg">
<circle cx="31" cy="31" r="31" fill="#FFCA28"/>
<path fill-rule="evenodd" clip-rule="evenodd" d="M16.4274 30.9999C19.0614 30.9999 21.1967 28.8646 21.1967 26.2307C21.1967 23.5967 19.0614 21.4614 16.4274 21.4614C13.7935 21.4614 11.6582 23.5967 11.6582 26.2307C11.6582 28.8646 13.7935 30.9999 16.4274 30.9999ZM45.0428 30.9999C47.6768 30.9999 49.8121 28.8646 49.8121 26.2307C49.8121 23.5967 47.6768 21.4614 45.0428 21.4614C42.4089 21.4614 40.2736 23.5967 40.2736 26.2307C40.2736 28.8646 42.4089 30.9999 45.0428 30.9999Z" fill="#6D4C41"/>
<path fill-rule="evenodd" clip-rule="evenodd" d="M28.6997 41.9174C25.0208 42.7573 21.9313 45.7084 20.2271 48.2837C19.7296 49.0356 18.7141 49.2435 17.9589 48.7482C17.2038 48.2528 16.9949 47.2417 17.4924 46.4899C19.4516 43.5292 23.1597 39.8371 27.9677 38.7394C32.9896 37.5928 38.676 39.3836 44.1659 46.3835C44.7224 47.0931 44.5958 48.1176 43.883 48.6717C43.1703 49.2259 42.1413 49.0998 41.5847 48.3901C36.6543 42.1036 32.1646 41.1263 28.6997 41.9174Z" fill="#6D4C41"/>
</svg>
